{"glyphs":{":":{"x_min":0,"x_max":254,"ha":254,"o":"m 244 472 q 244 421 210 392 q 177 362 133 362 q 90 362 60 388 q 27 417 27 468 q 27 520 60 550 q 93 579 138 579 q 182 579 213 552 q 244 524 244 472 z m 247 106 q 247 54 213 24 q 183 -3 138 -3 q 93 -3 62 24 q 28 54 28 106 q 28 158 60 186 q 92 215 137 215 q 182 215 214 186 q 247 158 247 106 z"},"$":{"x_min":0,"x_max":645,"ha":645,"o":"m 55 61 l 55 206 q 82 200 97 197 q 150 186 182 182 q 214 177 240 176 q 266 176 284 176 l 284 305 q 188 302 116 345 q 37 392 37 491 q 37 582 101 642 q 146 685 219 709 q 251 718 284 727 l 284 766 l 363 766 l 363 728 q 385 727 413 724 q 441 722 484 710 q 527 699 557 684 q 582 672 582 667 l 582 518 q 569 523 558 526 q 526 535 476 544 q 426 554 377 554 q 374 554 369 553 l 369 420 q 469 421 544 375 q 625 325 625 221 q 625 136 559 81 q 512 42 436 21 q 402 13 369 6 l 369 -68 l 284 -68 l 284 6 q 269 7 257 8 q 222 12 161 24 q 129 30 92 44 q 55 57 55 61 z m 193 484 q 193 449 238 437 q 253 433 284 432 l 284 547 q 254 546 239 541 q 193 526 193 484 z m 369 294 l 369 185 q 399 186 413 190 q 457 203 457 242 q 457 272 427 286 q 406 296 379 296 q 375 296 371 296 q 370 295 369 294 z"},"?":{"x_min":0,"x_max":549,"ha":549,"o":"m 37 520 l 49 671 q 85 690 112 699 q 196 728 286 728 q 383 728 450 688 q 536 637 536 539 q 536 442 454 392 q 394 363 334 334 q 317 322 312 293 q 311 284 310 267 l 178 267 q 177 278 177 286 q 177 316 182 344 q 188 371 204 391 q 225 417 274 435 q 358 467 358 484 q 358 512 318 523 q 277 534 211 534 q 143 534 70 525 q 57 524 37 520 z m 364 110 q 364 59 332 31 q 301 3 257 3 q 210 3 177 32 q 140 65 140 119 q 140 168 172 196 q 203 223 247 223 q 294 223 327 195 q 364 163 364 110 z"},"a":{"x_min":0,"x_max":617,"ha":617,"o":"m 290 -1 q 167 -1 105 66 q 38 138 38 288 q 38 426 102 500 q 167 573 284 573 q 349 573 396 555 q 453 533 453 523 l 453 566 l 587 566 l 587 11 l 456 11 l 456 45 q 456 57 452 57 q 426 34 384 16 q 343 -1 290 -1 z m 312 204 q 377 204 411 221 q 453 242 453 288 q 453 333 406 353 q 370 368 311 368 q 254 368 221 355 q 171 335 171 287 q 171 240 221 219 q 257 204 312 204 z"},"L":{"x_min":0,"x_max":565,"ha":565,"o":"m 43 727 l 194 727 l 194 260 l 539 260 l 539 1 l 43 1 z"},"3":{"x_min":0,"x_max":628,"ha":628,"o":"m 40 42 l 40 226 q 76 222 132 217 q 188 212 221 212 q 293 212 330 224 q 379 240 379 277 q 379 314 308 330 q 263 340 193 340 q 183 340 173 340 q 170 340 165 339 l 165 410 l 295 518 l 50 518 l 50 728 l 553 728 l 553 569 l 367 425 q 448 424 513 379 q 585 329 585 233 q 585 125 483 62 q 389 4 247 4 q 172 4 106 20 q 40 35 40 42 z"},";":{"x_min":0,"x_max":276,"ha":276,"o":"m 255 448 q 255 396 221 365 q 191 338 146 338 q 96 338 61 369 q 22 403 22 461 q 22 513 56 544 q 86 571 131 571 q 181 571 218 538 q 255 506 255 448 z m 25 108 q 25 152 59 180 q 93 208 140 208 q 191 208 224 176 q 257 144 257 101 q 257 80 256 66 q 254 51 247 37 l 172 -118 l 57 -118 l 117 -3 q 82 2 55 28 q 25 57 25 108 z"},"J":{"x_min":0,"x_max":379,"ha":379,"o":"m 186 728 l 338 728 l 338 139 q 338 71 280 33 q 230 0 154 0 q 103 0 71 11 q 39 22 39 31 l 39 234 l 117 234 q 130 234 144 238 q 157 241 168 252 q 186 270 186 297 z"},"V":{"x_min":0,"x_max":722,"ha":722,"o":"m 533 728 l 694 728 l 480 0 l 264 0 l 36 728 l 194 728 l 333 251 q 339 230 369 230 q 387 230 394 235 q 400 240 404 252 z"},"7":{"x_min":0,"x_max":590,"ha":590,"o":"m 43 729 l 561 729 l 561 515 l 290 1 l 133 1 l 399 509 l 43 509 z"},"S":{"x_min":0,"x_max":656,"ha":656,"o":"m 576 692 l 576 508 q 536 515 511 518 q 434 528 374 528 q 307 528 269 516 q 231 505 231 474 q 231 451 258 441 q 286 431 392 431 q 489 431 546 395 q 621 347 621 240 q 621 115 522 53 q 440 2 309 2 q 223 2 144 20 q 64 39 64 49 l 64 228 q 114 218 174 208 q 234 198 271 198 q 329 198 378 214 q 426 230 426 254 q 426 291 370 296 q 311 298 252 301 q 143 315 98 352 q 39 401 39 517 q 39 594 115 658 q 201 730 332 730 q 421 730 498 715 q 576 700 576 692 z"},"Z":{"x_min":0,"x_max":648,"ha":648,"o":"m 57 731 l 606 731 l 606 533 l 281 227 l 612 227 l 612 0 l 41 0 l 41 206 l 360 504 l 57 504 z"},"x":{"x_min":0,"x_max":611,"ha":611,"o":"m 181 0 l 35 0 l 175 305 l 61 576 l 210 576 l 262 430 q 266 421 278 416 q 289 412 302 412 q 322 412 331 416 q 340 421 343 430 l 399 576 l 544 576 l 436 305 l 581 0 l 435 0 l 354 183 q 353 186 351 188 q 339 201 306 201 q 280 201 267 192 q 263 189 259 183 z"},")":{"x_min":0,"x_max":283,"ha":283,"o":"m 128 734 q 136 734 168 680 q 206 616 232 542 q 266 444 266 360 q 266 228 206 104 q 156 0 133 0 l 28 0 q 50 67 70 168 q 89 270 89 361 q 89 445 72 542 q 62 602 41 679 q 34 706 27 734 z"},"&":{"x_min":0,"x_max":736,"ha":736,"o":"m 541 697 l 541 517 q 512 521 493 523 q 430 530 388 530 q 322 530 280 516 q 238 503 238 468 q 238 431 317 423 q 356 421 396 420 l 396 317 q 386 317 372 318 q 357 318 328 318 q 256 318 225 300 q 200 285 200 257 q 200 211 261 194 q 300 183 378 183 q 494 183 542 233 q 571 264 571 307 q 571 310 571 314 q 571 315 570 317 l 442 317 l 442 421 l 718 421 l 718 317 l 671 317 q 671 171 609 94 q 533 0 360 0 q 215 0 134 45 q 36 100 36 220 q 36 291 100 341 q 131 360 163 379 q 127 391 97 427 q 64 468 64 531 q 64 633 156 687 q 229 730 331 730 q 441 730 501 714 q 521 709 541 697 z"},"v":{"x_min":0,"x_max":648,"ha":648,"o":"m 467 573 l 615 573 l 425 -3 l 229 -3 l 44 574 l 194 574 l 289 246 q 294 234 298 229 q 311 212 329 212 q 344 212 354 222 q 365 231 369 246 z"},"O":{"x_min":0,"x_max":745,"ha":745,"o":"m 369 729 q 558 729 641 622 q 708 536 708 372 q 708 200 643 110 q 561 -3 369 -3 q 181 -3 101 114 q 38 206 38 376 q 38 534 109 623 q 193 729 369 729 z m 178 371 q 178 296 221 262 q 264 228 368 228 q 477 228 522 260 q 567 292 567 369 q 567 443 510 474 q 462 500 366 500 q 285 500 235 470 q 178 436 178 371 z"},"(":{"x_min":0,"x_max":294,"ha":294,"o":"m 263 734 q 238 671 217 576 q 193 469 193 374 q 193 286 214 190 q 229 123 253 53 q 271 0 272 0 l 161 0 q 150 0 117 52 q 77 116 53 189 q 21 287 21 383 q 21 472 52 562 q 77 634 111 687 q 141 734 151 734 z"},"C":{"x_min":0,"x_max":606,"ha":606,"o":"m 563 677 l 563 463 q 527 471 504 475 q 429 488 373 488 q 288 488 242 464 q 182 433 182 364 q 182 295 240 264 q 287 239 369 239 q 427 239 508 253 q 540 258 572 264 l 572 38 q 572 30 494 14 q 416 -1 355 -1 q 210 -1 128 88 q 39 184 39 370 q 39 532 121 628 q 207 728 361 728 q 426 728 483 713 q 563 692 563 677 z"},"W":{"x_min":0,"x_max":1010,"ha":1010,"o":"m 811 729 l 967 729 l 830 1 l 620 1 l 503 483 l 389 1 l 168 1 l 39 729 l 194 729 l 276 241 q 278 226 294 226 q 306 226 308 241 l 421 729 l 583 729 l 698 242 q 699 236 704 231 q 709 226 717 226 q 724 226 728 232 q 733 239 734 247 z"},"A":{"x_min":0,"x_max":768,"ha":768,"o":"m 268 731 l 494 731 l 744 0 l 576 0 l 534 149 l 238 149 l 196 0 l 36 0 z m 303 353 l 466 353 l 419 513 l 351 513 z"},"f":{"x_min":0,"x_max":387,"ha":387,"o":"m 349 731 l 349 612 q 345 612 343 612 q 335 612 327 613 q 304 613 287 610 q 270 608 260 600 q 249 592 248 580 q 246 569 245 558 l 359 558 l 359 342 l 236 342 l 236 1 l 107 1 l 107 342 l 35 342 l 35 556 l 106 556 q 105 563 105 567 q 105 613 123 650 q 153 710 226 728 q 236 730 256 731 q 275 732 296 732 q 314 732 326 732 q 339 732 349 731 z"},"Q":{"x_min":0,"x_max":764,"ha":764,"o":"m 381 737 q 563 737 650 623 q 720 531 720 382 q 720 301 706 240 q 691 197 676 154 l 728 109 l 648 9 l 587 52 q 568 35 516 18 q 463 1 383 1 q 217 1 132 86 q 39 180 39 378 q 39 536 117 630 q 206 737 381 737 z m 183 375 q 183 296 241 263 q 281 240 343 240 q 368 240 376 241 q 378 241 382 243 l 457 337 l 539 272 q 552 281 558 291 q 577 322 577 381 q 577 433 540 461 q 493 496 383 496 q 291 496 241 470 q 183 440 183 375 z"},"w":{"x_min":0,"x_max":845,"ha":845,"o":"m 664 573 l 806 573 l 706 1 l 511 1 l 426 350 l 348 1 l 150 1 l 39 573 l 172 573 l 233 237 q 234 230 240 224 q 245 217 255 217 q 263 217 268 222 q 274 228 276 237 l 349 573 l 497 573 l 576 239 q 581 217 598 217 q 610 217 616 228 q 618 233 619 240 z"},"-":{"x_min":0,"x_max":351,"ha":351,"o":"m 62 395 l 321 395 l 289 275 l 30 275 z"},"E":{"x_min":0,"x_max":634,"ha":634,"o":"m 39 733 l 598 733 l 598 520 l 205 520 l 205 441 l 549 441 l 549 317 l 203 317 l 203 217 l 603 217 l 603 1 l 39 1 z"},"s":{"x_min":0,"x_max":562,"ha":562,"o":"m 494 547 l 494 395 q 456 401 432 404 q 355 414 310 414 q 266 414 243 407 q 220 400 220 383 q 220 356 316 346 q 411 337 450 318 q 532 278 532 175 q 532 81 459 37 q 399 1 293 1 q 216 1 128 21 q 99 27 54 42 l 54 189 q 100 179 128 174 q 218 158 271 158 q 313 158 337 166 q 361 175 361 196 q 361 222 278 230 q 166 241 123 260 q 39 297 39 393 q 39 491 129 538 q 198 574 305 574 q 360 574 427 562 q 494 551 494 547 z"},"l":{"x_min":0,"x_max":206,"ha":206,"o":"m 42 731 l 176 731 l 176 0 l 42 0 z"},"8":{"x_min":0,"x_max":669,"ha":669,"o":"m 326 727 q 433 727 510 681 q 598 629 598 538 q 598 477 573 438 q 544 410 516 383 q 559 366 592 328 q 629 285 629 226 q 629 108 549 53 q 474 1 328 1 q 187 1 112 51 q 29 107 29 222 q 29 277 63 320 q 101 351 140 383 q 109 402 87 435 q 62 472 62 528 q 62 634 145 685 q 214 727 326 727 z m 221 474 q 221 438 276 429 q 300 425 332 425 q 381 425 404 432 q 442 443 442 474 q 442 504 405 515 q 381 522 333 522 q 279 522 260 517 q 221 507 221 474 z m 182 260 q 182 228 212 212 q 243 195 328 195 q 396 195 425 203 q 476 217 476 259 q 476 299 424 312 q 396 319 329 319 q 256 319 234 314 q 182 302 182 260 z"},"e":{"x_min":0,"x_max":594,"ha":594,"o":"m 561 244 l 180 244 q 186 202 211 186 q 253 159 343 159 q 397 159 478 174 q 510 179 543 185 l 543 58 q 507 40 480 31 q 396 3 307 3 q 171 3 101 88 q 36 167 36 305 q 36 422 105 495 q 179 573 312 573 q 460 573 523 465 q 564 394 564 289 q 564 261 563 251 q 563 248 561 244 z m 421 346 q 413 381 394 394 q 362 417 300 417 q 240 417 209 395 q 190 382 179 346 z"},"b":{"x_min":0,"x_max":626,"ha":626,"o":"m 41 734 l 175 734 l 175 553 q 175 530 179 530 q 199 553 242 571 q 285 589 346 589 q 458 589 526 511 q 594 433 594 303 q 594 159 530 80 q 467 0 353 0 q 294 0 247 22 q 210 46 174 70 q 170 70 170 59 l 170 10 l 41 10 z m 315 211 q 387 211 418 233 q 450 255 450 295 q 450 335 414 356 q 378 376 316 376 q 237 376 203 352 q 175 332 175 295 q 175 248 214 228 q 247 211 315 211 z"},"%":{"x_min":0,"x_max":866,"ha":866,"o":"m 238 734 q 320 734 372 674 q 425 615 425 528 q 425 421 372 366 q 320 310 235 310 q 147 310 94 368 q 42 425 42 529 q 42 619 94 676 q 145 734 238 734 z m 655 417 q 740 417 794 364 q 847 310 847 214 q 847 113 796 56 q 745 -1 660 -1 q 572 -1 522 49 q 467 104 467 212 q 467 306 520 362 q 572 417 655 417 z m 245 6 l 574 722 l 644 722 l 317 6 z m 579 207 q 579 168 603 145 q 627 122 658 122 q 689 122 712 144 q 734 165 734 204 q 734 243 711 265 q 688 287 656 287 q 625 287 602 266 q 579 245 579 207 z m 157 524 q 157 485 182 461 q 204 440 236 440 q 267 440 288 462 q 310 483 310 524 q 310 563 288 584 q 266 605 234 605 q 202 605 180 584 q 157 563 157 524 z"},"m":{"x_min":0,"x_max":887,"ha":887,"o":"m 859 409 l 859 0 l 728 0 l 728 260 q 728 307 705 333 q 682 359 631 359 q 588 359 557 330 q 519 294 519 225 l 519 0 l 389 0 l 389 261 q 389 304 364 330 q 338 357 291 357 q 242 357 210 323 q 178 289 178 237 l 178 1 l 44 1 l 44 562 l 172 562 l 172 504 q 172 485 177 485 q 204 521 244 547 q 288 576 344 576 q 409 576 450 543 q 478 506 506 470 q 533 511 576 541 q 624 575 689 575 q 770 575 816 526 q 859 480 859 409 z"},",":{"x_min":0,"x_max":272,"ha":272,"o":"m 21 113 q 21 157 56 185 q 90 213 137 213 q 187 213 220 181 q 253 149 253 106 q 253 85 252 70 q 250 56 243 41 l 168 -114 l 53 -114 l 113 2 q 91 6 68 20 q 21 49 21 113 z"},"n":{"x_min":0,"x_max":580,"ha":580,"o":"m 178 0 l 43 0 l 43 561 l 179 561 l 179 487 q 179 483 179 479 q 180 478 181 477 q 205 514 250 541 q 299 571 365 571 q 462 571 511 517 q 553 471 553 397 l 553 1 l 420 1 l 420 217 q 420 287 394 314 q 364 345 284 345 q 232 345 205 307 q 178 269 178 211 z"},"h":{"x_min":0,"x_max":582,"ha":582,"o":"m 185 1 l 44 1 l 44 728 l 184 728 l 184 499 q 184 485 188 485 q 218 520 261 546 q 310 575 368 575 q 459 575 508 525 q 550 482 550 417 l 550 2 l 413 2 l 413 270 q 413 318 382 338 q 357 354 304 354 q 245 354 215 314 q 185 274 185 213 z"},"z":{"x_min":0,"x_max":527,"ha":527,"o":"m 58 576 l 504 576 l 504 420 l 261 193 l 504 193 l 504 0 l 37 0 l 37 157 l 273 380 l 58 380 z"},"B":{"x_min":0,"x_max":739,"ha":739,"o":"m 38 728 l 413 728 q 547 728 608 681 q 669 634 669 539 q 669 480 642 439 q 611 411 581 383 q 626 367 659 325 q 696 279 696 212 q 696 113 634 59 q 567 1 432 1 l 38 1 z m 194 518 l 194 445 l 426 445 q 451 445 467 453 q 483 461 483 483 q 483 503 466 510 q 450 518 426 518 z m 195 310 l 195 212 l 444 212 q 471 212 490 224 q 508 236 508 263 q 508 288 490 299 q 471 310 441 310 z"},"K":{"x_min":0,"x_max":675,"ha":675,"o":"m 228 472 l 410 731 l 594 731 l 401 473 q 416 465 431 458 q 534 439 572 400 q 610 360 626 294 q 638 244 638 180 l 638 1 l 487 1 l 487 127 q 487 164 480 182 q 473 201 458 222 q 442 242 412 250 q 383 258 361 258 l 182 258 l 182 1 l 39 1 l 39 729 l 183 729 l 183 483 q 183 478 188 470 q 194 463 202 462 q 220 460 228 472 z"},"R":{"x_min":0,"x_max":746,"ha":746,"o":"m 530 1 l 530 143 q 530 162 523 178 q 516 195 499 210 q 482 226 461 232 q 440 238 417 238 l 201 238 l 201 1 l 48 1 l 48 732 l 452 732 q 577 732 645 654 q 701 589 701 499 q 701 431 667 382 q 629 346 592 310 q 628 295 656 254 q 685 214 685 146 l 685 1 z m 201 505 l 201 389 l 430 389 q 472 389 493 400 q 520 414 520 447 q 520 479 496 492 q 471 505 428 505 z"},"T":{"x_min":0,"x_max":640,"ha":640,"o":"m 39 729 l 606 729 l 606 487 l 399 487 l 399 1 l 246 1 l 246 488 l 39 488 z"},"P":{"x_min":0,"x_max":692,"ha":692,"o":"m 198 211 l 198 0 l 43 0 l 43 726 l 406 726 q 517 726 587 662 q 662 593 662 472 q 662 347 586 276 q 516 211 406 211 z m 405 362 q 442 362 468 378 q 498 397 498 431 q 498 468 471 486 q 444 503 404 503 l 194 503 l 194 362 z"},"t":{"x_min":0,"x_max":438,"ha":438,"o":"m 112 377 l 34 377 l 34 578 l 107 578 l 107 691 l 239 691 l 239 578 l 396 578 l 396 377 l 244 377 l 244 257 q 244 227 260 214 q 271 205 299 198 q 314 195 329 195 q 352 195 380 200 q 384 200 391 202 l 391 18 q 372 12 360 10 q 323 2 292 2 q 216 2 169 35 q 112 75 112 157 z"},"M":{"x_min":0,"x_max":904,"ha":904,"o":"m 188 1 l 46 1 l 46 728 l 325 728 l 455 225 l 584 728 l 864 728 l 864 1 l 718 1 l 718 485 q 718 496 710 500 q 703 503 691 503 q 683 503 676 497 q 668 491 667 485 l 549 1 l 362 1 l 241 485 q 238 503 213 503 q 204 503 196 497 q 188 491 188 483 z"},"g":{"x_min":0,"x_max":617,"ha":617,"o":"m 449 503 l 449 557 l 584 557 l 584 6 q 584 -98 506 -159 q 428 -220 287 -220 q 215 -220 146 -196 q 123 -188 91 -172 l 91 -21 q 129 -35 153 -41 q 227 -61 288 -61 q 365 -61 406 -33 q 453 -1 453 56 q 453 59 452 65 q 430 43 389 22 q 348 0 292 0 q 163 0 100 72 q 34 147 34 303 q 34 429 103 501 q 172 573 284 573 q 349 573 395 544 q 449 510 449 503 z m 309 203 q 380 203 413 219 q 453 238 453 284 q 453 330 409 351 q 373 368 307 368 q 241 368 204 350 q 166 331 166 285 q 166 240 209 220 q 246 203 309 203 z"},"j":{"x_min":0,"x_max":280,"ha":280,"o":"m 255 656 q 255 620 228 600 q 202 580 165 580 q 128 580 104 598 q 76 619 76 656 q 76 692 103 712 q 130 731 167 731 q 203 731 229 712 q 255 692 255 656 z m 95 553 l 226 553 l 226 0 q 226 -54 219 -81 q 206 -131 166 -157 q 146 -169 116 -174 q 87 -179 59 -179 q 51 -179 43 -179 q 41 -179 37 -178 l 37 1 q 45 1 54 3 q 64 5 77 14 q 85 19 90 28 q 95 36 95 48 z"},"i":{"x_min":0,"x_max":233,"ha":233,"o":"m 55 553 l 183 553 l 183 -4 l 55 -4 z m 207 653 q 207 617 181 598 q 155 578 119 578 q 83 578 59 597 q 31 619 31 655 q 31 690 57 710 q 83 729 119 729 q 155 729 181 710 q 207 690 207 653 z"},"y":{"x_min":0,"x_max":589,"ha":589,"o":"m 43 570 l 180 570 l 180 308 q 180 272 206 246 q 233 219 283 219 q 294 220 299 220 q 344 225 376 252 q 418 288 418 350 l 418 569 l 560 569 l 560 44 q 560 -72 499 -142 q 424 -229 266 -229 q 193 -229 138 -214 q 83 -198 83 -191 l 83 -40 q 116 -48 137 -52 q 201 -64 252 -64 q 349 -64 392 -15 q 420 17 420 61 q 420 71 419 74 q 419 75 417 76 q 397 48 352 24 q 307 -1 240 -1 q 119 -1 72 77 q 43 125 43 199 q 43 213 43 217 z"},".":{"x_min":0,"x_max":254,"ha":254,"o":"m 246 106 q 246 54 212 24 q 182 -3 137 -3 q 93 -3 62 24 q 28 54 28 106 q 28 158 60 186 q 92 215 137 215 q 181 215 214 186 q 246 158 246 106 z"},"p":{"x_min":0,"x_max":654,"ha":654,"o":"m 175 -192 l 42 -192 l 42 592 l 178 592 l 178 535 q 196 546 214 558 q 273 602 355 602 q 481 602 549 539 q 628 466 628 311 q 628 152 560 73 q 496 -1 374 -1 q 295 -1 240 28 q 175 62 175 71 z m 331 212 q 395 212 436 230 q 488 253 488 303 q 488 352 437 373 q 398 389 331 389 q 270 389 230 373 q 175 351 175 304 q 175 253 226 230 q 265 212 331 212 z"},"X":{"x_min":0,"x_max":758,"ha":758,"o":"m 218 -6 l 44 -6 l 258 378 l 83 719 l 250 719 l 345 532 q 352 518 358 512 q 365 506 379 506 q 390 506 398 510 q 406 515 415 533 l 508 719 l 680 719 l 497 373 l 712 -6 l 536 -6 l 417 217 q 410 231 402 238 q 393 245 376 245 q 361 245 351 237 q 341 229 335 216 z"},"*":{"x_min":0,"x_max":233,"ha":233,"o":"m 85 716 q 86 725 86 746 q 87 768 117 768 q 136 768 143 753 q 146 734 149 716 q 150 715 164 722 q 178 728 187 728 q 201 728 208 715 q 212 708 212 702 q 212 691 200 682 q 188 673 176 664 q 186 659 195 653 q 215 641 215 626 q 215 620 214 617 q 208 598 188 598 q 178 598 170 601 q 161 604 155 606 q 153 590 152 578 q 148 554 122 554 q 99 554 96 572 q 92 590 91 603 q 89 604 82 601 q 61 591 54 591 q 42 591 36 600 q 30 610 30 617 q 30 627 40 638 q 51 649 62 660 q 52 665 43 670 q 24 680 24 695 q 24 702 27 708 q 30 715 36 719 q 41 722 50 722 q 58 722 71 718 q 84 715 85 716 z"},"Y":{"x_min":0,"x_max":685,"ha":685,"o":"m 277 274 q 190 274 119 321 q 41 373 41 450 l 41 729 l 187 729 l 187 595 q 187 539 225 506 q 263 472 338 472 q 408 472 452 506 q 496 539 496 598 l 496 729 l 648 729 l 648 284 q 648 157 562 79 q 477 1 325 1 q 246 1 174 19 q 69 45 69 64 l 69 234 q 114 218 184 203 q 253 188 317 188 q 421 188 467 243 q 497 279 497 330 q 497 347 494 350 q 472 326 420 302 q 361 274 277 274 z"},"c":{"x_min":0,"x_max":528,"ha":528,"o":"m 493 529 l 493 347 q 461 353 441 356 q 379 365 328 365 q 259 365 220 349 q 172 329 172 285 q 172 239 219 219 q 256 203 325 203 q 377 203 438 212 q 498 221 498 222 l 498 36 q 498 32 453 21 q 357 -3 309 -3 q 165 -3 97 78 q 36 151 36 285 q 36 418 96 490 q 164 572 306 572 q 380 572 436 556 q 493 540 493 529 z"},"!":{"x_min":0,"x_max":277,"ha":277,"o":"m 65 734 l 226 734 l 202 274 l 89 274 z m 260 110 q 260 57 226 28 q 193 -2 147 -2 q 102 -2 70 26 q 34 58 34 111 q 34 164 68 194 q 101 223 147 223 q 194 223 227 194 q 260 164 260 110 z"},"/":{"x_min":0,"x_max":445,"ha":445,"o":"m 350 728 l 425 728 l 96 1 l 22 1 z"},"6":{"x_min":0,"x_max":651,"ha":651,"o":"m 551 690 l 551 505 q 516 510 460 517 q 404 524 370 524 q 287 524 239 502 q 177 474 177 411 q 177 406 181 406 q 205 419 250 429 q 294 439 351 439 q 465 439 530 395 q 610 341 610 222 q 610 121 541 63 q 466 0 321 0 q 162 0 96 101 q 39 188 39 369 q 39 549 123 641 q 203 728 347 728 q 429 728 496 711 q 551 697 551 690 z m 180 260 q 180 227 216 215 q 240 207 292 207 q 311 207 320 207 q 335 207 343 207 q 414 207 438 220 q 462 234 462 261 q 462 287 442 299 q 418 314 352 314 q 330 314 319 314 q 250 314 228 309 q 180 298 180 260 z"},"r":{"x_min":0,"x_max":438,"ha":438,"o":"m 177 212 l 177 1 l 45 1 l 45 577 l 180 577 l 180 501 q 186 501 193 502 q 248 563 321 574 q 328 574 336 575 q 345 576 349 576 q 377 576 397 568 q 404 566 413 559 l 413 342 q 402 346 394 347 q 370 352 344 352 q 319 352 292 346 q 266 341 240 327 q 207 308 190 270 q 177 241 177 212 z"},"2":{"x_min":0,"x_max":638,"ha":638,"o":"m 71 508 l 71 683 q 71 689 104 702 q 188 735 314 735 q 445 735 521 686 q 608 630 608 519 q 608 436 561 388 q 522 348 447 327 q 409 316 305 300 q 248 291 225 258 q 220 242 216 227 l 606 227 l 606 7 l 45 7 l 45 176 q 45 249 82 305 q 129 376 224 406 q 258 417 388 445 q 439 456 439 488 q 439 515 396 524 q 354 532 289 532 q 273 532 262 532 q 251 532 245 532 q 187 532 123 520 q 102 516 71 508 z"},"9":{"x_min":0,"x_max":636,"ha":636,"o":"m 61 44 l 61 224 q 103 214 162 206 q 220 197 272 197 q 358 197 406 219 q 469 248 469 314 q 469 319 463 319 q 427 305 379 294 q 331 283 279 283 q 174 283 114 323 q 33 377 33 503 q 33 603 106 662 q 183 725 322 725 q 490 725 554 624 q 605 543 605 356 q 605 170 522 82 q 445 0 294 0 q 216 0 154 12 q 61 30 61 44 z m 463 465 q 463 498 434 508 q 405 517 355 517 q 333 517 323 517 q 249 517 230 513 q 181 503 181 463 q 181 430 215 419 q 239 411 291 411 q 313 411 324 411 q 339 411 347 411 q 418 411 440 424 q 463 437 463 465 z"}," ":{"x_min":0,"x_max":345,"ha":345,"o":""},"I":{"x_min":0,"x_max":221,"ha":221,"o":"m 42 731 l 188 731 l 188 1 l 42 1 z"},"H":{"x_min":0,"x_max":692,"ha":692,"o":"m 41 728 l 198 728 l 198 506 l 504 506 l 504 729 l 656 729 l 656 6 l 505 6 l 505 270 l 193 270 l 193 1 l 41 1 z"},"4":{"x_min":0,"x_max":658,"ha":658,"o":"m 341 727 l 534 727 l 534 365 l 623 365 l 623 150 l 534 150 l 534 1 l 394 1 l 394 150 l 40 150 l 40 347 z m 217 365 l 391 365 l 391 509 l 329 509 z"},"~":{"x_min":0,"x_max":580,"ha":580,"o":"m 459 705 q 444 659 415 634 q 386 608 346 608 q 333 608 320 611 q 306 614 291 621 q 268 634 256 640 q 233 652 214 652 q 200 652 189 648 q 164 639 136 610 l 125 621 q 140 667 169 692 q 198 718 238 718 q 251 718 264 715 q 278 712 293 705 q 316 692 328 686 q 351 674 370 674 q 388 674 408 684 q 427 693 448 716 z"},"D":{"x_min":0,"x_max":709,"ha":709,"o":"m 42 728 l 400 728 q 526 728 601 642 q 683 548 683 372 q 683 161 574 71 q 489 1 326 1 l 42 1 z m 394 228 q 455 228 494 264 q 534 301 534 367 q 534 431 495 469 q 456 507 397 507 l 189 507 l 189 228 z"},"^":{"x_min":0,"x_max":617,"ha":617,"o":"m 527 609 l 489 592 l 336 670 l 187 592 l 149 609 l 338 759 z"},"0":{"x_min":0,"x_max":663,"ha":663,"o":"m 332 733 q 475 733 549 650 q 628 561 628 372 q 628 182 552 90 q 476 -3 334 -3 q 191 -3 118 81 q 39 172 39 366 q 39 557 117 648 q 190 733 332 733 z m 333 222 q 420 222 457 264 q 489 300 489 370 q 489 433 452 469 q 411 509 328 509 q 255 509 216 469 q 177 429 177 365 q 177 301 218 262 q 258 222 333 222 z"},"F":{"x_min":0,"x_max":636,"ha":636,"o":"m 47 728 l 598 728 l 598 518 l 206 518 l 206 393 l 571 393 l 571 237 l 207 237 l 207 1 l 47 1 z"},"`":{"x_min":0,"x_max":470,"ha":470,"o":"m 380 624 l 342 607 l 99 722 l 191 774 z"},"k":{"x_min":0,"x_max":617,"ha":617,"o":"m 587 170 l 587 0 l 442 0 l 442 87 q 442 107 435 128 q 428 149 410 168 q 391 186 368 194 q 345 201 318 201 l 187 201 l 187 0 l 43 0 l 43 727 l 184 727 l 184 411 q 184 395 188 389 q 193 383 217 383 q 229 383 244 394 q 248 397 258 407 l 389 566 l 568 566 l 431 399 q 427 396 426 394 q 421 388 421 383 q 421 379 469 362 q 502 350 529 327 q 556 304 572 260 q 587 216 587 170 z"},"u":{"x_min":0,"x_max":604,"ha":604,"o":"m 428 573 l 569 573 l 569 6 l 434 6 l 434 110 q 421 84 372 44 q 316 -2 238 -2 q 133 -2 83 67 q 44 121 44 202 l 44 572 l 186 572 l 186 317 q 186 263 219 235 q 248 211 293 211 q 319 211 346 221 q 395 241 415 286 q 429 317 429 356 q 428 376 428 378 z"},"U":{"x_min":0,"x_max":684,"ha":684,"o":"m 497 730 l 645 730 l 645 231 q 645 133 567 68 q 483 -2 344 -2 q 209 -2 128 58 q 46 118 46 226 l 46 730 l 194 730 l 194 337 q 194 270 246 240 q 286 217 349 217 q 412 217 448 239 q 497 269 497 339 z"},"o":{"x_min":0,"x_max":684,"ha":684,"o":"m 341 574 q 482 574 555 521 q 649 453 649 293 q 649 126 557 57 q 485 3 341 3 q 199 3 130 52 q 35 119 35 288 q 35 455 127 522 q 198 574 341 574 z m 180 281 q 180 246 211 227 q 251 203 338 203 q 410 203 446 215 q 502 234 502 283 q 502 332 447 350 q 411 362 338 362 q 268 362 233 350 q 180 332 180 281 z"},"N":{"x_min":0,"x_max":687,"ha":687,"o":"m 183 1 l 40 1 l 40 727 l 281 727 l 478 245 q 482 233 488 230 q 492 228 501 228 q 515 228 515 248 l 515 727 l 654 727 l 654 1 l 420 1 l 222 482 q 220 488 212 492 q 205 497 199 496 q 183 494 183 476 z"},"G":{"x_min":0,"x_max":715,"ha":715,"o":"m 639 678 l 639 487 q 620 488 602 489 q 494 503 434 503 q 326 503 266 477 q 187 443 187 364 q 187 274 258 237 q 303 213 368 213 q 474 213 520 256 q 530 277 541 299 l 417 299 l 417 428 l 677 428 l 677 16 l 539 16 l 539 75 q 531 57 483 30 q 429 -1 344 -1 q 185 -1 112 94 q 38 189 38 373 q 38 555 146 646 q 243 728 410 728 q 501 728 576 706 q 639 688 639 678 z"},"q":{"x_min":0,"x_max":631,"ha":631,"o":"m 464 67 q 451 53 404 28 q 350 -1 275 -1 q 159 -1 98 69 q 33 144 33 296 q 33 444 108 513 q 173 573 294 573 q 358 573 405 547 q 462 515 462 509 l 462 563 l 592 563 l 592 -183 l 464 -183 z m 450 294 q 450 339 406 359 q 372 375 317 375 q 253 375 216 360 q 167 340 167 293 q 167 247 217 224 q 257 206 317 206 q 374 206 407 223 q 450 245 450 294 z"},"d":{"x_min":0,"x_max":613,"ha":613,"o":"m 449 730 l 586 730 l 586 16 l 458 16 l 458 61 q 450 59 443 57 q 384 0 291 0 q 173 0 107 70 q 36 145 36 289 q 36 441 114 517 q 181 582 290 582 q 383 582 436 540 q 442 539 449 539 z m 316 210 q 389 210 422 228 q 456 246 456 293 q 456 337 418 354 q 379 372 314 372 q 238 372 206 354 q 173 337 173 291 q 173 246 210 228 q 248 210 316 210 z"},"1":{"x_min":0,"x_max":339,"ha":339,"o":"m 152 460 q 152 465 145 465 q 139 465 124 461 q 109 457 94 453 q 63 449 54 448 q 46 448 38 446 l 38 659 q 52 660 61 662 q 86 668 121 683 q 158 701 175 712 q 186 719 193 728 l 295 728 l 295 1 l 152 1 z"},"5":{"x_min":0,"x_max":598,"ha":598,"o":"m 44 725 l 523 725 l 523 517 l 169 517 l 169 438 q 184 438 200 438 q 252 442 278 442 q 398 442 466 408 q 566 358 566 235 q 566 127 474 63 q 386 2 244 2 q 182 2 112 20 q 43 37 43 43 l 43 234 q 84 226 109 222 q 191 209 243 209 q 297 209 330 221 q 363 233 363 263 q 363 300 300 316 q 252 328 168 328 q 120 328 91 326 q 62 325 44 325 z"}}}
